<svg width="27" height="31" viewBox="0 0 27 31" fill="none" xmlns="http://www.w3.org/2000/svg">
<path d="M13.0458 2.20784L12.6197 2.63591C12.3373 2.91963 12.3373 3.37966 12.6197 3.66345L23.3771 14.4707H0.723214C0.323819 14.4707 0 14.796 0 15.1973V15.8027C0 16.204 0.323819 16.5293 0.723214 16.5293H23.3771L12.6197 27.3366C12.3373 27.6203 12.3373 28.0803 12.6197 28.3641L13.0458 28.7922C13.3282 29.0759 13.7862 29.0759 14.0686 28.7922L26.7882 16.0137C27.0706 15.73 27.0706 15.27 26.7882 14.9862L14.0686 2.20784C13.7862 1.92406 13.3282 1.92406 13.0458 2.20784Z" fill="white"/>
</svg>
