<svg viewBox="0 0 30 30" fill="none" xmlns="http://www.w3.org/2000/svg">
<circle cx="15" cy="15" r="14.5" />
<path d="M13.125 13.8066H14.5703C15.2995 13.8001 15.8757 13.6113 16.2988 13.2402C16.7285 12.8691 16.9434 12.332 16.9434 11.6289C16.9434 10.9518 16.7643 10.4277 16.4062 10.0566C16.0547 9.67904 15.5143 9.49023 14.7852 9.49023C14.1471 9.49023 13.623 9.67578 13.2129 10.0469C12.8027 10.4115 12.5977 10.89 12.5977 11.4824H10.2246C10.2246 10.7533 10.4167 10.0892 10.8008 9.49023C11.1914 8.89128 11.7318 8.42578 12.4219 8.09375C13.1185 7.75521 13.8965 7.58594 14.7559 7.58594C16.1751 7.58594 17.2884 7.94401 18.0957 8.66016C18.9095 9.36979 19.3164 10.3594 19.3164 11.6289C19.3164 12.2669 19.1113 12.8691 18.7012 13.4355C18.2975 13.9954 17.7734 14.4186 17.1289 14.7051C17.9102 14.972 18.5026 15.3919 18.9062 15.9648C19.3164 16.5378 19.5215 17.2214 19.5215 18.0156C19.5215 19.2917 19.082 20.3073 18.2031 21.0625C17.3307 21.8177 16.1816 22.1953 14.7559 22.1953C13.3887 22.1953 12.2689 21.8307 11.3965 21.1016C10.5241 20.3724 10.0879 19.4023 10.0879 18.1914H12.4609C12.4609 18.8164 12.6693 19.3242 13.0859 19.7148C13.5091 20.1055 14.0755 20.3008 14.7852 20.3008C15.5208 20.3008 16.1003 20.1055 16.5234 19.7148C16.9466 19.3242 17.1582 18.7578 17.1582 18.0156C17.1582 17.2669 16.9368 16.6908 16.4941 16.2871C16.0514 15.8835 15.3939 15.6816 14.5215 15.6816H13.125V13.8066Z" fill="#4DC549"/>
</svg>
