<svg viewBox="0 0 30 30" fill="none" xmlns="http://www.w3.org/2000/svg">
<circle cx="15" cy="15" r="14.5"/>
<path d="M19.625 22H10.0645V20.3691L14.8008 15.2031C15.4844 14.4414 15.9694 13.8066 16.2559 13.2988C16.5488 12.7845 16.6953 12.2702 16.6953 11.7559C16.6953 11.0788 16.5033 10.5319 16.1191 10.1152C15.7415 9.69857 15.2305 9.49023 14.5859 9.49023C13.8177 9.49023 13.222 9.72461 12.7988 10.1934C12.3757 10.6621 12.1641 11.3034 12.1641 12.1172H9.79102C9.79102 11.2513 9.98633 10.4733 10.377 9.7832C10.7741 9.08659 11.3372 8.54622 12.0664 8.16211C12.8021 7.77799 13.6484 7.58594 14.6055 7.58594C15.9857 7.58594 17.0729 7.93424 17.8672 8.63086C18.668 9.32096 19.0684 10.278 19.0684 11.502C19.0684 12.2116 18.8665 12.957 18.4629 13.7383C18.0658 14.513 17.4115 15.3952 16.5 16.3848L13.0234 20.1055H19.625V22Z" fill="#4DC549"/>
</svg>
